# Blender v3.2.1 OBJ File: 'forCai.blend'
# www.blender.org
mtllib forCai2.mtl
o Cube
v 9.999999 1.000000 -9.999999
v -5.955486 0.040308 -7.868869
v 9.999999 -1.000000 -9.999999
v 9.999999 1.000000 9.999999
v -5.760396 0.040308 -7.849654
v 9.999999 -1.000000 9.999999
v -9.999999 1.000000 -9.999999
v -5.572803 0.040308 -7.792748
v -9.999999 -1.000000 -9.999999
v -5.399916 0.040308 -7.700338
v -9.999999 1.000000 9.999999
v -9.999999 -1.000000 9.999999
v -5.248379 0.040308 -7.575975
v -5.124016 0.040308 -7.424439
v -5.031606 0.040308 -7.251553
v -4.974700 0.040308 -7.063959
v -4.955486 0.040308 -6.868869
v -4.974700 0.040308 -6.673779
v -5.031606 0.040308 -6.486186
v -5.124016 0.040308 -6.313299
v -5.248379 0.040308 -6.161762
v -5.399916 0.040308 -6.037400
v -5.572803 0.040308 -5.944990
v -5.760396 0.040308 -5.888083
v -5.955486 0.040308 -5.868869
v -6.150576 0.040308 -5.888083
v -6.338169 0.040308 -5.944990
v -6.511056 0.040308 -6.037400
v -6.662592 0.040308 -6.161762
v -6.786955 0.040308 -6.313299
v -6.879365 0.040308 -6.486186
v -6.936271 0.040308 -6.673779
v -6.955485 0.040308 -6.868869
v -6.936271 0.040308 -7.063959
v -6.879365 0.040308 -7.251553
v -6.786956 0.040308 -7.424439
v -6.662592 0.040308 -7.575975
v -6.511056 0.040308 -7.700338
v -6.338169 0.040308 -7.792749
v -6.150576 0.040308 -7.849655
v -6.955485 1.000000 -6.868869
v -6.936271 1.000000 -6.673779
v -6.936271 1.000000 -7.063959
v -6.879365 1.000000 -6.486186
v -6.786956 1.000000 -7.424439
v -6.786955 1.000000 -6.313299
v -6.879365 1.000000 -7.251553
v -6.662592 1.000000 -6.161762
v -6.511056 1.000000 -7.700338
v -6.150576 1.000000 -5.888083
v -6.338169 1.000000 -5.944990
v -6.150576 1.000000 -7.849655
v -6.511056 1.000000 -6.037400
v -6.338169 1.000000 -7.792749
v -6.662592 1.000000 -7.575975
v -5.760396 1.000000 -5.888083
v -5.760396 1.000000 -7.849654
v -5.399916 1.000000 -6.037400
v -5.399916 1.000000 -7.700338
v -5.572803 1.000000 -5.944990
v -5.572803 1.000000 -7.792748
v -5.124016 1.000000 -6.313299
v -5.124016 1.000000 -7.424439
v -4.955486 1.000000 -6.868869
v -4.974700 1.000000 -7.063959
v -4.974700 1.000000 -6.673779
v -5.031606 1.000000 -7.251553
v -5.031606 1.000000 -6.486186
v -5.248379 1.000000 -7.575975
v -5.248379 1.000000 -6.161762
v -5.955486 1.000000 -5.868869
v -5.955486 1.000000 -7.868869
vt 0.834837 0.532194
vt 0.875000 0.500000
vt 0.875000 0.750000
vt 0.625000 0.750000
vt 0.625000 0.500000
vt 0.812184 0.536700
vt 0.811944 0.539139
vt 0.812184 0.541578
vt 0.812895 0.543923
vt 0.814050 0.546084
vt 0.815605 0.547978
vt 0.817499 0.549532
vt 0.819660 0.550688
vt 0.822005 0.551399
vt 0.824444 0.551639
vt 0.826882 0.551399
vt 0.829227 0.550688
vt 0.831388 0.549532
vt 0.833282 0.547978
vt 0.834837 0.546084
vt 0.835992 0.543923
vt 0.836703 0.541578
vt 0.836944 0.539139
vt 0.836703 0.536701
vt 0.835992 0.534356
vt 0.833282 0.530300
vt 0.831388 0.528746
vt 0.829227 0.527591
vt 0.826882 0.526879
vt 0.824444 0.526639
vt 0.822005 0.526879
vt 0.819660 0.527591
vt 0.817499 0.528746
vt 0.815605 0.530300
vt 0.814050 0.532194
vt 0.812895 0.534356
vt 0.375000 0.750000
vt 0.625000 1.000000
vt 0.375000 1.000000
vt 0.375000 0.000000
vt 0.625000 0.000000
vt 0.625000 0.250000
vt 0.375000 0.250000
vt 0.125000 0.500000
vt 0.375000 0.500000
vt 0.125000 0.750000
vt 1.000000 0.623439
vt 1.000000 0.500000
vt 0.968750 0.500000
vt 0.968750 0.623439
vt 0.937500 0.500000
vt 0.937500 0.623439
vt 0.906250 0.500000
vt 0.906250 0.623439
vt 0.875000 0.500000
vt 0.875000 0.623439
vt 0.843750 0.500000
vt 0.843750 0.623439
vt 0.812500 0.500000
vt 0.812500 0.623439
vt 0.781250 0.500000
vt 0.781250 0.623439
vt 0.750000 0.500000
vt 0.750000 0.623439
vt 0.718750 0.500000
vt 0.718750 0.623439
vt 0.687500 0.500000
vt 0.687500 0.623439
vt 0.656250 0.500000
vt 0.656250 0.623439
vt 0.625000 0.500000
vt 0.625000 0.623439
vt 0.593750 0.500000
vt 0.593750 0.623439
vt 0.562500 0.500000
vt 0.562500 0.623439
vt 0.531250 0.500000
vt 0.531250 0.623439
vt 0.500000 0.500000
vt 0.500000 0.623439
vt 0.468750 0.500000
vt 0.468750 0.623439
vt 0.437500 0.500000
vt 0.437500 0.623439
vt 0.406250 0.500000
vt 0.406250 0.623439
vt 0.375000 0.500000
vt 0.375000 0.623439
vt 0.343750 0.500000
vt 0.343750 0.623439
vt 0.312500 0.500000
vt 0.312500 0.623439
vt 0.281250 0.500000
vt 0.281250 0.623439
vt 0.250000 0.500000
vt 0.250000 0.623439
vt 0.218750 0.500000
vt 0.218750 0.623439
vt 0.187500 0.500000
vt 0.187500 0.623439
vt 0.156250 0.500000
vt 0.156250 0.623439
vt 0.125000 0.500000
vt 0.125000 0.623439
vt 0.093750 0.500000
vt 0.093750 0.623439
vt 0.062500 0.500000
vt 0.062500 0.623439
vt 0.031250 0.500000
vt 0.031250 0.623439
vt 0.000000 0.500000
vt 0.000000 0.623439
vt 0.514612 0.203178
vt 0.528269 0.158156
vt 0.550447 0.116663
vt 0.580294 0.080294
vt 0.616663 0.050447
vt 0.658156 0.028269
vt 0.703178 0.014612
vt 0.750000 0.010000
vt 0.796822 0.014612
vt 0.841844 0.028269
vt 0.883337 0.050447
vt 0.919706 0.080294
vt 0.949553 0.116663
vt 0.971731 0.158156
vt 0.985388 0.203178
vt 0.990000 0.250000
vt 0.985388 0.296822
vt 0.971731 0.341844
vt 0.949553 0.383337
vt 0.919706 0.419706
vt 0.883337 0.449553
vt 0.841844 0.471731
vt 0.796822 0.485388
vt 0.750000 0.490000
vt 0.703178 0.485388
vt 0.658156 0.471731
vt 0.616663 0.449553
vt 0.580294 0.419706
vt 0.550447 0.383337
vt 0.528269 0.341844
vt 0.514612 0.296822
vt 0.510000 0.250000
vn 0.0000 1.0000 -0.0000
vn 0.0000 0.0000 1.0000
vn -1.0000 0.0000 0.0000
vn 0.0000 -1.0000 0.0000
vn 1.0000 0.0000 0.0000
vn 0.0000 0.0000 -1.0000
vn -0.0980 0.0000 0.9952
vn -0.2903 0.0000 0.9569
vn -0.4714 0.0000 0.8819
vn -0.6344 0.0000 0.7730
vn -0.7730 0.0000 0.6344
vn -0.8819 0.0000 0.4714
vn -0.9569 0.0000 0.2903
vn -0.9952 0.0000 0.0980
vn -0.9952 0.0000 -0.0980
vn -0.9569 0.0000 -0.2903
vn -0.8819 0.0000 -0.4714
vn -0.7730 0.0000 -0.6344
vn -0.6344 0.0000 -0.7730
vn -0.4714 0.0000 -0.8819
vn -0.2903 0.0000 -0.9569
vn -0.0980 0.0000 -0.9952
vn 0.0980 0.0000 -0.9952
vn 0.2903 0.0000 -0.9569
vn 0.4714 0.0000 -0.8819
vn 0.6344 0.0000 -0.7730
vn 0.7730 0.0000 -0.6344
vn 0.8819 0.0000 -0.4714
vn 0.9569 0.0000 -0.2903
vn 0.9952 0.0000 -0.0980
vn 0.9952 0.0000 0.0980
vn 0.9569 0.0000 0.2903
vn 0.8819 0.0000 0.4714
vn 0.7730 0.0000 0.6344
vn 0.6344 0.0000 0.7730
vn 0.4714 0.0000 0.8819
vn 0.2903 0.0000 0.9569
vn 0.0980 0.0000 0.9952
usemtl Material
s off
f 45/1/1 7/2/1 11/3/1 4/4/1 1/5/1 65/6/1 64/7/1 66/8/1 68/9/1 62/10/1 70/11/1 58/12/1 60/13/1 56/14/1 71/15/1 50/16/1 51/17/1 53/18/1 48/19/1 46/20/1 44/21/1 42/22/1 41/23/1 43/24/1 47/25/1
f 65/6/1 1/5/1 7/2/1 45/1/1 55/26/1 49/27/1 54/28/1 52/29/1 72/30/1 57/31/1 61/32/1 59/33/1 69/34/1 63/35/1 67/36/1
f 6/37/2 4/4/2 11/38/2 12/39/2
f 12/40/3 11/41/3 7/42/3 9/43/3
f 9/44/4 3/45/4 6/37/4 12/46/4
f 3/45/5 1/5/5 4/4/5 6/37/5
f 9/43/6 7/42/6 1/5/6 3/45/6
usemtl (null)
f 72/47/7 2/48/7 5/49/7 57/50/7
f 57/50/8 5/49/8 8/51/8 61/52/8
f 61/52/9 8/51/9 10/53/9 59/54/9
f 59/54/10 10/53/10 13/55/10 69/56/10
f 13/55/11 14/57/11 63/58/11 69/56/11
f 14/57/12 15/59/12 67/60/12 63/58/12
f 15/59/13 16/61/13 65/62/13 67/60/13
f 16/61/14 17/63/14 64/64/14 65/62/14
f 17/63/15 18/65/15 66/66/15 64/64/15
f 18/65/16 19/67/16 68/68/16 66/66/16
f 19/67/17 20/69/17 62/70/17 68/68/17
f 20/69/18 21/71/18 70/72/18 62/70/18
f 21/71/19 22/73/19 58/74/19 70/72/19
f 22/73/20 23/75/20 60/76/20 58/74/20
f 23/75/21 24/77/21 56/78/21 60/76/21
f 24/77/22 25/79/22 71/80/22 56/78/22
f 25/79/23 26/81/23 50/82/23 71/80/23
f 26/81/24 27/83/24 51/84/24 50/82/24
f 27/83/25 28/85/25 53/86/25 51/84/25
f 28/85/26 29/87/26 48/88/26 53/86/26
f 48/88/27 29/87/27 30/89/27 46/90/27
f 46/90/28 30/89/28 31/91/28 44/92/28
f 44/92/29 31/91/29 32/93/29 42/94/29
f 42/94/30 32/93/30 33/95/30 41/96/30
f 41/96/31 33/95/31 34/97/31 43/98/31
f 43/98/32 34/97/32 35/99/32 47/100/32
f 47/100/33 35/99/33 36/101/33 45/102/33
f 45/102/34 36/101/34 37/103/34 55/104/34
f 55/104/35 37/103/35 38/105/35 49/106/35
f 49/106/36 38/105/36 39/107/36 54/108/36
f 54/108/37 39/107/37 40/109/37 52/110/37
f 52/110/38 40/109/38 2/111/38 72/112/38
f 32/113/1 31/114/1 30/115/1 29/116/1 28/117/1 27/118/1 26/119/1 25/120/1 24/121/1 23/122/1 22/123/1 21/124/1 20/125/1 19/126/1 18/127/1 17/128/1 16/129/1 15/130/1 14/131/1 13/132/1 10/133/1 8/134/1 5/135/1 2/136/1 40/137/1 39/138/1 38/139/1 37/140/1 36/141/1 35/142/1 34/143/1 33/144/1
o Cylinder
v -5.955486 0.040308 -7.868869
v -5.955486 3.927625 -7.868869
v -5.760396 0.040308 -7.849655
v -5.760396 3.927625 -7.849655
v -5.572803 0.040308 -7.792749
v -5.572803 3.927625 -7.792749
v -5.399916 0.040308 -7.700339
v -5.399916 3.927625 -7.700339
v -5.248379 0.040308 -7.575976
v -5.248379 3.927625 -7.575976
v -5.124016 0.040308 -7.424439
v -5.124016 3.927625 -7.424439
v -5.031606 0.040308 -7.251553
v -5.031606 3.927625 -7.251553
v -4.974700 0.040308 -7.063960
v -4.974700 3.927625 -7.063960
v -4.955486 0.040308 -6.868869
v -4.955486 3.927625 -6.868869
v -4.974700 0.040308 -6.673779
v -4.974700 3.927625 -6.673779
v -5.031606 0.040308 -6.486186
v -5.031606 3.927625 -6.486186
v -5.124016 0.040308 -6.313299
v -5.124016 3.927625 -6.313299
v -5.248379 0.040308 -6.161763
v -5.248379 3.927625 -6.161763
v -5.399916 0.040308 -6.037400
v -5.399916 3.927625 -6.037400
v -5.572803 0.040308 -5.944990
v -5.572803 3.927625 -5.944990
v -5.760396 0.040308 -5.888084
v -5.760396 3.927625 -5.888084
v -5.955486 0.040308 -5.868869
v -5.955486 3.927625 -5.868869
v -6.150576 0.040308 -5.888084
v -6.150576 3.927625 -5.888084
v -6.338169 0.040308 -5.944990
v -6.338169 3.927625 -5.944990
v -6.511056 0.040308 -6.037400
v -6.511056 3.927625 -6.037400
v -6.662592 0.040308 -6.161762
v -6.662592 3.927625 -6.161762
v -6.786955 0.040308 -6.313299
v -6.786955 3.927625 -6.313299
v -6.879365 0.040308 -6.486186
v -6.879365 3.927625 -6.486186
v -6.936271 0.040308 -6.673779
v -6.936271 3.927625 -6.673779
v -6.955486 0.040308 -6.868869
v -6.955486 3.927625 -6.868869
v -6.936271 0.040308 -7.063960
v -6.936271 3.927625 -7.063960
v -6.879365 0.040308 -7.251553
v -6.879365 3.927625 -7.251553
v -6.786955 0.040308 -7.424439
v -6.786955 3.927625 -7.424439
v -6.662593 0.040308 -7.575976
v -6.662593 3.927625 -7.575976
v -6.511056 0.040308 -7.700339
v -6.511056 3.927625 -7.700339
v -6.338169 0.040308 -7.792749
v -6.338169 3.927625 -7.792749
v -6.150576 0.040308 -7.849655
v -6.150576 3.927625 -7.849655
vt 1.000000 0.500000
vt 1.000000 1.000000
vt 0.968750 1.000000
vt 0.968750 0.500000
vt 0.937500 1.000000
vt 0.937500 0.500000
vt 0.906250 1.000000
vt 0.906250 0.500000
vt 0.875000 1.000000
vt 0.875000 0.500000
vt 0.843750 1.000000
vt 0.843750 0.500000
vt 0.812500 1.000000
vt 0.812500 0.500000
vt 0.781250 1.000000
vt 0.781250 0.500000
vt 0.750000 1.000000
vt 0.750000 0.500000
vt 0.718750 1.000000
vt 0.718750 0.500000
vt 0.687500 1.000000
vt 0.687500 0.500000
vt 0.656250 1.000000
vt 0.656250 0.500000
vt 0.625000 1.000000
vt 0.625000 0.500000
vt 0.593750 1.000000
vt 0.593750 0.500000
vt 0.562500 1.000000
vt 0.562500 0.500000
vt 0.531250 1.000000
vt 0.531250 0.500000
vt 0.500000 1.000000
vt 0.500000 0.500000
vt 0.468750 1.000000
vt 0.468750 0.500000
vt 0.437500 1.000000
vt 0.437500 0.500000
vt 0.406250 1.000000
vt 0.406250 0.500000
vt 0.375000 1.000000
vt 0.375000 0.500000
vt 0.343750 1.000000
vt 0.343750 0.500000
vt 0.312500 1.000000
vt 0.312500 0.500000
vt 0.281250 1.000000
vt 0.281250 0.500000
vt 0.250000 1.000000
vt 0.250000 0.500000
vt 0.218750 1.000000
vt 0.218750 0.500000
vt 0.187500 1.000000
vt 0.187500 0.500000
vt 0.156250 1.000000
vt 0.156250 0.500000
vt 0.125000 1.000000
vt 0.125000 0.500000
vt 0.093750 1.000000
vt 0.093750 0.500000
vt 0.062500 1.000000
vt 0.062500 0.500000
vt 0.296822 0.485388
vt 0.250000 0.490000
vt 0.203178 0.485388
vt 0.158156 0.471731
vt 0.116663 0.449553
vt 0.080294 0.419706
vt 0.050447 0.383337
vt 0.028269 0.341844
vt 0.014612 0.296822
vt 0.010000 0.250000
vt 0.014612 0.203178
vt 0.028269 0.158156
vt 0.050447 0.116663
vt 0.080294 0.080294
vt 0.116663 0.050447
vt 0.158156 0.028269
vt 0.203178 0.014612
vt 0.250000 0.010000
vt 0.296822 0.014612
vt 0.341844 0.028269
vt 0.383337 0.050447
vt 0.419706 0.080294
vt 0.449553 0.116663
vt 0.471731 0.158156
vt 0.485388 0.203178
vt 0.490000 0.250000
vt 0.485388 0.296822
vt 0.471731 0.341844
vt 0.449553 0.383337
vt 0.419706 0.419706
vt 0.383337 0.449553
vt 0.341844 0.471731
vt 0.031250 1.000000
vt 0.031250 0.500000
vt 0.000000 1.000000
vt 0.000000 0.500000
vt 0.750000 0.490000
vt 0.796822 0.485388
vt 0.841844 0.471731
vt 0.883337 0.449553
vt 0.919706 0.419706
vt 0.949553 0.383337
vt 0.971731 0.341844
vt 0.985388 0.296822
vt 0.990000 0.250000
vt 0.985388 0.203178
vt 0.971731 0.158156
vt 0.949553 0.116663
vt 0.919706 0.080294
vt 0.883337 0.050447
vt 0.841844 0.028269
vt 0.796822 0.014612
vt 0.750000 0.010000
vt 0.703178 0.014612
vt 0.658156 0.028269
vt 0.616663 0.050447
vt 0.580294 0.080294
vt 0.550447 0.116663
vt 0.528269 0.158156
vt 0.514612 0.203178
vt 0.510000 0.250000
vt 0.514612 0.296822
vt 0.528269 0.341844
vt 0.550447 0.383337
vt 0.580294 0.419706
vt 0.616663 0.449553
vt 0.658156 0.471731
vt 0.703178 0.485388
vn 0.0980 0.0000 -0.9952
vn 0.2903 0.0000 -0.9569
vn 0.4714 0.0000 -0.8819
vn 0.6344 0.0000 -0.7730
vn 0.7730 0.0000 -0.6344
vn 0.8819 0.0000 -0.4714
vn 0.9569 0.0000 -0.2903
vn 0.9952 0.0000 -0.0980
vn 0.9952 0.0000 0.0980
vn 0.9569 0.0000 0.2903
vn 0.8819 0.0000 0.4714
vn 0.7730 0.0000 0.6344
vn 0.6344 0.0000 0.7730
vn 0.4714 0.0000 0.8819
vn 0.2903 0.0000 0.9569
vn 0.0980 0.0000 0.9952
vn -0.0980 0.0000 0.9952
vn -0.2903 0.0000 0.9569
vn -0.4714 0.0000 0.8819
vn -0.6344 0.0000 0.7730
vn -0.7730 0.0000 0.6344
vn -0.8819 0.0000 0.4714
vn -0.9569 0.0000 0.2903
vn -0.9952 0.0000 0.0980
vn -0.9952 0.0000 -0.0980
vn -0.9569 0.0000 -0.2903
vn -0.8819 0.0000 -0.4714
vn -0.7730 0.0000 -0.6344
vn -0.6344 0.0000 -0.7730
vn -0.4714 0.0000 -0.8819
vn 0.0000 1.0000 0.0000
vn -0.2903 0.0000 -0.9569
vn -0.0980 0.0000 -0.9952
vn 0.0000 -1.0000 -0.0000
usemtl None
s off
f 73/145/39 74/146/39 76/147/39 75/148/39
f 75/148/40 76/147/40 78/149/40 77/150/40
f 77/150/41 78/149/41 80/151/41 79/152/41
f 79/152/42 80/151/42 82/153/42 81/154/42
f 81/154/43 82/153/43 84/155/43 83/156/43
f 83/156/44 84/155/44 86/157/44 85/158/44
f 85/158/45 86/157/45 88/159/45 87/160/45
f 87/160/46 88/159/46 90/161/46 89/162/46
f 89/162/47 90/161/47 92/163/47 91/164/47
f 91/164/48 92/163/48 94/165/48 93/166/48
f 93/166/49 94/165/49 96/167/49 95/168/49
f 95/168/50 96/167/50 98/169/50 97/170/50
f 97/170/51 98/169/51 100/171/51 99/172/51
f 99/172/52 100/171/52 102/173/52 101/174/52
f 101/174/53 102/173/53 104/175/53 103/176/53
f 103/176/54 104/175/54 106/177/54 105/178/54
f 105/178/55 106/177/55 108/179/55 107/180/55
f 107/180/56 108/179/56 110/181/56 109/182/56
f 109/182/57 110/181/57 112/183/57 111/184/57
f 111/184/58 112/183/58 114/185/58 113/186/58
f 113/186/59 114/185/59 116/187/59 115/188/59
f 115/188/60 116/187/60 118/189/60 117/190/60
f 117/190/61 118/189/61 120/191/61 119/192/61
f 119/192/62 120/191/62 122/193/62 121/194/62
f 121/194/63 122/193/63 124/195/63 123/196/63
f 123/196/64 124/195/64 126/197/64 125/198/64
f 125/198/65 126/197/65 128/199/65 127/200/65
f 127/200/66 128/199/66 130/201/66 129/202/66
f 129/202/67 130/201/67 132/203/67 131/204/67
f 131/204/68 132/203/68 134/205/68 133/206/68
f 76/207/69 74/208/69 136/209/69 134/210/69 132/211/69 130/212/69 128/213/69 126/214/69 124/215/69 122/216/69 120/217/69 118/218/69 116/219/69 114/220/69 112/221/69 110/222/69 108/223/69 106/224/69 104/225/69 102/226/69 100/227/69 98/228/69 96/229/69 94/230/69 92/231/69 90/232/69 88/233/69 86/234/69 84/235/69 82/236/69 80/237/69 78/238/69
f 133/206/70 134/205/70 136/239/70 135/240/70
f 135/240/71 136/239/71 74/241/71 73/242/71
f 73/243/72 75/244/72 77/245/72 79/246/72 81/247/72 83/248/72 85/249/72 87/250/72 89/251/72 91/252/72 93/253/72 95/254/72 97/255/72 99/256/72 101/257/72 103/258/72 105/259/72 107/260/72 109/261/72 111/262/72 113/263/72 115/264/72 117/265/72 119/266/72 121/267/72 123/268/72 125/269/72 127/270/72 129/271/72 131/272/72 133/273/72 135/274/72
