# WaveFront *.obj file (generated by Autodesk ATF)

mtllib Billboard v0.mtl

g Body1

v 2.921000 2.286000 0.317500
v 2.921000 2.286000 7.302500
v -7.366000 2.286000 7.302500
v -7.366000 2.286000 0.317500
v -7.366000 1.841500 7.302500
v -7.366000 1.841500 0.317500
v 2.921000 1.841500 7.302500
v 2.921000 1.841500 0.317500
v 3.238500 3.238500 0.000000
v 3.238500 3.238500 7.620000
v 3.238500 1.841500 7.620000
v 3.238500 1.841500 0.000000
v -7.683500 3.238500 7.620000
v -7.683500 1.841500 7.620000
v -7.683500 3.238500 0.000000
v -7.683500 1.841500 0.000000
vt -0.317500 -0.635000 0.000000
vt -7.302500 -0.635000 0.000000
vt -0.317500 -10.922000 0.000000
vt -7.302500 -10.922000 0.000000
vt -0.317500 -1.270000 0.000000
vt -7.302500 -1.270000 0.000000
vt -0.317500 -1.714500 0.000000
vt -7.302500 -1.714500 0.000000
vt 7.366000 -0.254000 0.000000
vt -2.921000 -0.254000 0.000000
vt 7.366000 -0.698500 0.000000
vt -2.921000 -0.698500 0.000000
vt 7.302500 0.762000 0.000000
vt 0.317500 0.762000 0.000000
vt 7.302500 0.317500 0.000000
vt 0.317500 0.317500 0.000000
vt 5.143500 -0.254000 0.000000
vt -5.143500 -0.254000 0.000000
vt 5.143500 -0.698500 0.000000
vt -5.143500 -0.698500 0.000000
vt -0.000000 1.714500 0.000000
vt -7.620000 1.714500 0.000000
vt -0.000000 0.317500 0.000000
vt -7.620000 0.317500 0.000000
vt 3.238500 0.698500 0.000000
vt -7.683500 0.698500 0.000000
vt 3.238500 -0.698500 0.000000
vt -7.683500 -0.698500 0.000000
vt 7.620000 -0.317500 0.000000
vt -0.000000 -0.317500 0.000000
vt 7.620000 -11.239500 0.000000
vt -0.000000 -11.239500 0.000000
vt 7.620000 -0.317500 0.000000
vt -0.000000 -0.317500 0.000000
vt 7.620000 -1.714500 0.000000
vt -0.000000 -1.714500 0.000000
vt -0.317500 6.477000 0.000000
vt -7.620000 6.794500 0.000000
vt -7.302500 6.477000 0.000000
vt -7.620000 -4.127500 0.000000
vt -7.302500 -3.810000 0.000000
vt -0.000000 -4.127500 0.000000
vt -0.317500 -3.810000 0.000000
vt -0.000000 6.794500 0.000000
vt -5.461000 -0.698500 0.000000
vt 5.461000 -0.698500 0.000000
vt -5.461000 0.698500 0.000000
vt 5.461000 0.698500 0.000000
vn 0.000000 -1.000000 0.000000
vn 0.000000 -1.000000 0.000000
vn 0.000000 -1.000000 0.000000
vn 0.000000 -1.000000 0.000000
vn 1.000000 0.000000 0.000000
vn 1.000000 0.000000 0.000000
vn 1.000000 0.000000 0.000000
vn 1.000000 0.000000 0.000000
vn -0.000000 -0.000000 -1.000000
vn -0.000000 -0.000000 -1.000000
vn -0.000000 -0.000000 -1.000000
vn -0.000000 -0.000000 -1.000000
vn -1.000000 0.000000 0.000000
vn -1.000000 0.000000 0.000000
vn -1.000000 0.000000 0.000000
vn -1.000000 0.000000 0.000000
vn 0.000000 -0.000000 1.000000
vn 0.000000 -0.000000 1.000000
vn 0.000000 -0.000000 1.000000
vn 0.000000 -0.000000 1.000000
vn 1.000000 -0.000000 -0.000000
vn 1.000000 -0.000000 -0.000000
vn 1.000000 -0.000000 -0.000000
vn 1.000000 -0.000000 -0.000000
vn 0.000000 0.000000 1.000000
vn 0.000000 0.000000 1.000000
vn 0.000000 0.000000 1.000000
vn 0.000000 0.000000 1.000000
vn -0.000000 1.000000 -0.000000
vn -0.000000 1.000000 -0.000000
vn -0.000000 1.000000 -0.000000
vn -0.000000 1.000000 -0.000000
vn -1.000000 -0.000000 -0.000000
vn -1.000000 -0.000000 -0.000000
vn -1.000000 -0.000000 -0.000000
vn -1.000000 -0.000000 -0.000000
vn -0.000000 -1.000000 -0.000000
vn -0.000000 -1.000000 -0.000000
vn -0.000000 -1.000000 -0.000000
vn -0.000000 -1.000000 -0.000000
vn -0.000000 -1.000000 -0.000000
vn -0.000000 -1.000000 -0.000000
vn -0.000000 -1.000000 -0.000000
vn -0.000000 -1.000000 -0.000000
vn -0.000000 0.000000 -1.000000
vn -0.000000 0.000000 -1.000000
vn -0.000000 0.000000 -1.000000
vn -0.000000 0.000000 -1.000000
usemtl Steel_-_Satin
f 1/1/1 2/2/2 4/3/3
f 4/3/3 2/2/2 3/4/4
f 4/5/5 3/6/6 6/7/7
f 6/7/7 3/6/6 5/8/8
f 3/9/9 2/10/10 5/11/11
f 5/11/11 2/10/10 7/12/12
f 2/13/13 1/14/14 7/15/15
f 7/15/15 1/14/14 8/16/16
f 1/17/17 4/18/18 8/19/19
f 8/19/19 4/18/18 6/20/20
f 9/21/21 10/22/22 12/23/23
f 12/23/23 10/22/22 11/24/24
f 10/25/25 13/26/26 11/27/27
f 11/27/27 13/26/26 14/28/28
f 10/29/29 9/30/30 13/31/31
f 13/31/31 9/30/30 15/32/32
f 13/33/33 15/34/34 14/35/35
f 14/35/35 15/34/34 16/36/36
f 8/37/37 11/38/38 7/39/39
f 7/39/39 11/38/38 14/40/40
f 7/39/39 14/40/40 5/41/41
f 5/41/41 14/40/40 16/42/42
f 5/41/41 16/42/42 6/43/43
f 6/43/43 16/42/42 8/37/37
f 8/37/37 16/42/42 12/44/44
f 8/37/37 12/44/44 11/38/38
f 12/45/45 16/46/46 9/47/47
f 9/47/47 16/46/46 15/48/48
g Body3

v -7.366000 2.921000 -3.810000
v -6.604000 2.921000 -3.810000
v -6.604000 2.159000 -3.810000
v -7.366000 2.159000 -3.810000
v -7.366000 2.921000 0.000000
v -6.604000 2.921000 0.000000
v -6.604000 2.159000 0.000000
v -7.366000 2.159000 0.000000
vt 0.381000 0.381000 0.000000
vt -0.381000 0.381000 0.000000
vt 0.381000 -0.381000 0.000000
vt -0.381000 -0.381000 0.000000
vt 0.000000 0.000000 0.000000
vt 0.762000 0.000000 0.000000
vt 0.000000 3.810000 0.000000
vt 0.762000 3.810000 0.000000
vt 0.000000 0.000000 0.000000
vt 0.762000 0.000000 0.000000
vt 0.000000 3.810000 0.000000
vt 0.762000 3.810000 0.000000
vt 0.000000 0.000000 0.000000
vt 0.762000 0.000000 0.000000
vt 0.000000 3.810000 0.000000
vt 0.762000 3.810000 0.000000
vt 0.000000 0.000000 0.000000
vt 0.762000 0.000000 0.000000
vt 0.000000 3.810000 0.000000
vt 0.762000 3.810000 0.000000
vt -0.698500 -0.381000 0.000000
vt 0.063500 -0.381000 0.000000
vt -0.698500 0.381000 0.000000
vt 0.063500 0.381000 0.000000
vn 0.000000 0.000000 -1.000000
vn 0.000000 0.000000 -1.000000
vn 0.000000 0.000000 -1.000000
vn 0.000000 0.000000 -1.000000
vn 0.000000 1.000000 0.000000
vn 0.000000 1.000000 0.000000
vn 0.000000 1.000000 0.000000
vn 0.000000 1.000000 0.000000
vn 1.000000 0.000000 0.000000
vn 1.000000 0.000000 0.000000
vn 1.000000 0.000000 0.000000
vn 1.000000 0.000000 0.000000
vn -0.000000 -1.000000 -0.000000
vn -0.000000 -1.000000 -0.000000
vn -0.000000 -1.000000 -0.000000
vn -0.000000 -1.000000 -0.000000
vn -1.000000 0.000000 0.000000
vn -1.000000 0.000000 0.000000
vn -1.000000 0.000000 0.000000
vn -1.000000 0.000000 0.000000
vn -0.000000 -0.000000 1.000000
vn -0.000000 -0.000000 1.000000
vn -0.000000 -0.000000 1.000000
vn -0.000000 -0.000000 1.000000
f 17/49/49 18/50/50 20/51/51
f 20/51/51 18/50/50 19/52/52
f 21/53/53 22/54/54 17/55/55
f 17/55/55 22/54/54 18/56/56
f 22/57/57 23/58/58 18/59/59
f 18/59/59 23/58/58 19/60/60
f 23/61/61 24/62/62 19/63/63
f 19/63/63 24/62/62 20/64/64
f 24/65/65 21/66/66 20/67/67
f 20/67/67 21/66/66 17/68/68
f 24/69/69 23/70/70 21/71/71
f 21/71/71 23/70/70 22/72/72
g Body4

v 2.921000 2.921000 0.000000
v 2.159000 2.921000 0.000000
v 2.159000 2.159000 0.000000
v 2.921000 2.159000 0.000000
v 2.921000 2.921000 -3.810000
v 2.159000 2.921000 -3.810000
v 2.159000 2.159000 -3.810000
v 2.921000 2.159000 -3.810000
vt 5.143500 0.381000 0.000000
vt 4.381500 0.381000 0.000000
vt 5.143500 -0.381000 0.000000
vt 4.381500 -0.381000 0.000000
vt 0.000000 0.000000 0.000000
vt 0.762000 0.000000 0.000000
vt 0.000000 3.810000 0.000000
vt 0.762000 3.810000 0.000000
vt 0.000000 0.000000 0.000000
vt 0.762000 0.000000 0.000000
vt 0.000000 3.810000 0.000000
vt 0.762000 3.810000 0.000000
vt -0.000000 0.000000 0.000000
vt 0.762000 0.000000 0.000000
vt 0.000000 3.810000 0.000000
vt 0.762000 3.810000 0.000000
vt -0.000000 0.000000 0.000000
vt 0.762000 0.000000 0.000000
vt 0.000000 3.810000 0.000000
vt 0.762000 3.810000 0.000000
vt -0.381000 -0.381000 0.000000
vt 0.381000 -0.381000 0.000000
vt -0.381000 0.381000 0.000000
vt 0.381000 0.381000 0.000000
vn 0.000000 -0.000000 1.000000
vn 0.000000 -0.000000 1.000000
vn 0.000000 -0.000000 1.000000
vn 0.000000 -0.000000 1.000000
vn 0.000000 1.000000 0.000000
vn 0.000000 1.000000 0.000000
vn 0.000000 1.000000 0.000000
vn 0.000000 1.000000 0.000000
vn -1.000000 -0.000000 -0.000000
vn -1.000000 -0.000000 -0.000000
vn -1.000000 -0.000000 -0.000000
vn -1.000000 -0.000000 -0.000000
vn 0.000000 -1.000000 0.000000
vn 0.000000 -1.000000 0.000000
vn 0.000000 -1.000000 0.000000
vn 0.000000 -1.000000 0.000000
vn 1.000000 -0.000000 0.000000
vn 1.000000 -0.000000 0.000000
vn 1.000000 -0.000000 0.000000
vn 1.000000 -0.000000 0.000000
vn 0.000000 0.000000 -1.000000
vn 0.000000 0.000000 -1.000000
vn 0.000000 0.000000 -1.000000
vn 0.000000 0.000000 -1.000000
f 25/73/73 26/74/74 28/75/75
f 28/75/75 26/74/74 27/76/76
f 26/77/77 25/78/78 30/79/79
f 30/79/79 25/78/78 29/80/80
f 27/81/81 26/82/82 31/83/83
f 31/83/83 26/82/82 30/84/84
f 28/85/85 27/86/86 32/87/87
f 32/87/87 27/86/86 31/88/88
f 25/89/89 28/90/90 29/91/91
f 29/91/91 28/90/90 32/92/92
f 32/93/93 31/94/94 29/95/95
f 29/95/95 31/94/94 30/96/96
# 32 vertices
# 96 texture params
# 96 normals
# 52 facets

# 3 groups
